<svg width="24" height="25" viewBox="0 0 24 25" fill="none" xmlns="http://www.w3.org/2000/svg">
<path d="M7.29117 21.3242L2 22.5L3.17581 17.2088C2.42544 15.8056 2 14.2025 2 12.5C2 6.97715 6.47715 2.5 12 2.5C17.5228 2.5 22 6.97715 22 12.5C22 18.0228 17.5228 22.5 12 22.5C10.2975 22.5 8.6944 22.0746 7.29117 21.3242ZM7.58075 19.211L8.23428 19.5605C9.38248 20.1745 10.6655 20.5 12 20.5C16.4183 20.5 20 16.9183 20 12.5C20 8.08172 16.4183 4.5 12 4.5C7.58172 4.5 4 8.08172 4 12.5C4 13.8345 4.32549 15.1175 4.93949 16.2657L5.28896 16.9192L4.63416 19.8658L7.58075 19.211Z" fill="white"/>
</svg>
