<svg width="15" height="15" viewBox="0 0 15 15" fill="none" xmlns="http://www.w3.org/2000/svg">
<path d="M1.43115 4.8625V10.9437C1.43115 12.1312 2.2749 12.6187 3.2999 12.0312L4.76865 11.1937C5.0874 11.0125 5.61865 10.9938 5.9499 11.1625L9.23115 12.8062C9.5624 12.9687 10.0937 12.9563 10.4124 12.775L13.1187 11.225C13.4624 11.025 13.7499 10.5375 13.7499 10.1375V4.05625C13.7499 2.86875 12.9062 2.38125 11.8812 2.96875L10.4124 3.80625C10.0937 3.9875 9.5624 4.00625 9.23115 3.8375L5.9499 2.2C5.61865 2.0375 5.0874 2.05 4.76865 2.23125L2.0624 3.78125C1.7124 3.98125 1.43115 4.46875 1.43115 4.8625Z" stroke="#636363" stroke-linecap="round" stroke-linejoin="round"/>
<path d="M5.3501 2.5V10.625" stroke="#636363" stroke-linecap="round" stroke-linejoin="round"/>
<path d="M9.83105 4.1375V12.5" stroke="#636363" stroke-linecap="round" stroke-linejoin="round"/>
</svg>
