<svg width="15" height="15" viewBox="0 0 15 15" fill="none" xmlns="http://www.w3.org/2000/svg">
<path d="M12.1875 7.8125C12.1875 6.95 12.8875 6.25 13.75 6.25V5.625C13.75 3.125 13.125 2.5 10.625 2.5H4.375C1.875 2.5 1.25 3.125 1.25 5.625V5.9375C2.1125 5.9375 2.8125 6.6375 2.8125 7.5C2.8125 8.3625 2.1125 9.0625 1.25 9.0625V9.375C1.25 11.875 1.875 12.5 4.375 12.5H10.625C13.125 12.5 13.75 11.875 13.75 9.375C12.8875 9.375 12.1875 8.675 12.1875 7.8125Z" stroke="#498C92" stroke-linecap="round" stroke-linejoin="round"/>
<path d="M5.625 9.21875L9.375 5.46875" stroke="#498C92" stroke-linecap="round" stroke-linejoin="round"/>
<path d="M9.37157 9.21875H9.37718" stroke="#498C92" stroke-width="2" stroke-linecap="round" stroke-linejoin="round"/>
<path d="M5.62157 5.78125H5.62718" stroke="#498C92" stroke-width="2" stroke-linecap="round" stroke-linejoin="round"/>
</svg>
