<svg width="15" height="16" viewBox="0 0 15 16" fill="none" xmlns="http://www.w3.org/2000/svg">
<path d="M5.9375 8.85684C5.9375 9.46309 6.40626 9.95059 6.98126 9.95059H8.15624C8.65624 9.95059 9.0625 9.52559 9.0625 8.99434C9.0625 8.42559 8.81251 8.21934 8.44376 8.08809L6.5625 7.43184C6.19375 7.30059 5.94376 7.10059 5.94376 6.52559C5.94376 6.00059 6.34999 5.56934 6.84999 5.56934H8.025C8.6 5.56934 9.06876 6.05684 9.06876 6.66309" stroke="#636363" stroke-linecap="round" stroke-linejoin="round"/>
<path d="M7.5 4.95059V10.5756" stroke="#636363" stroke-linecap="round" stroke-linejoin="round"/>
<path d="M13.75 7.76309C13.75 11.2131 10.95 14.0131 7.5 14.0131C4.05 14.0131 1.25 11.2131 1.25 7.76309C1.25 4.31309 4.05 1.51309 7.5 1.51309" stroke="#636363" stroke-linecap="round" stroke-linejoin="round"/>
<path d="M10.625 2.13809V4.63809H13.125" stroke="#636363" stroke-linecap="round" stroke-linejoin="round"/>
<path d="M13.75 1.51309L10.625 4.63809" stroke="#636363" stroke-linecap="round" stroke-linejoin="round"/>
</svg>
