<svg width="15" height="16" viewBox="0 0 15 16" fill="none" xmlns="http://www.w3.org/2000/svg">
<path d="M5.9375 9.35684C5.9375 9.96309 6.40626 10.4506 6.98126 10.4506H8.15624C8.65624 10.4506 9.0625 10.0256 9.0625 9.49434C9.0625 8.92559 8.81251 8.71934 8.44376 8.58809L6.5625 7.93184C6.19375 7.80059 5.94376 7.60059 5.94376 7.02559C5.94376 6.50059 6.34999 6.06934 6.84999 6.06934H8.025C8.6 6.06934 9.06876 6.55684 9.06876 7.16309" stroke="#1F1F1F" stroke-linecap="round" stroke-linejoin="round"/>
<path d="M7.5 5.45059V11.0756" stroke="#1F1F1F" stroke-linecap="round" stroke-linejoin="round"/>
<path d="M13.75 8.26309C13.75 11.7131 10.95 14.5131 7.5 14.5131C4.05 14.5131 1.25 11.7131 1.25 8.26309C1.25 4.81309 4.05 2.01309 7.5 2.01309" stroke="#1F1F1F" stroke-linecap="round" stroke-linejoin="round"/>
<path d="M10.625 2.63809V5.13809H13.125" stroke="#1F1F1F" stroke-linecap="round" stroke-linejoin="round"/>
<path d="M13.75 2.01309L10.625 5.13809" stroke="#1F1F1F" stroke-linecap="round" stroke-linejoin="round"/>
</svg>
