<svg width="15" height="15" viewBox="0 0 15 15" fill="none" xmlns="http://www.w3.org/2000/svg">
<path d="M11.275 8.46874C11.0125 8.72499 10.8625 9.09375 10.9 9.4875C10.9563 10.1625 11.575 10.6562 12.25 10.6562H13.4375V11.4C13.4375 12.6937 12.3812 13.75 11.0875 13.75H4.76875C4.9625 13.5875 5.13125 13.3875 5.2625 13.1625C5.49375 12.7875 5.625 12.3438 5.625 11.875C5.625 10.4937 4.50625 9.375 3.125 9.375C2.5375 9.375 1.99375 9.58125 1.5625 9.925V7.19376C1.5625 5.90001 2.61875 4.84375 3.9125 4.84375H11.0875C12.3812 4.84375 13.4375 5.90001 13.4375 7.19376V8.09376H12.175C11.825 8.09376 11.5063 8.23124 11.275 8.46874Z" stroke="#1F1F1F" stroke-linecap="round" stroke-linejoin="round"/>
<path d="M1.5625 7.75625V4.90003C1.5625 4.15628 2.01875 3.49376 2.7125 3.23126L7.675 1.35626C8.45 1.06251 9.28125 1.63753 9.28125 2.46878V4.84377" stroke="#1F1F1F" stroke-linecap="round" stroke-linejoin="round"/>
<path d="M14.0993 8.73135V10.0189C14.0993 10.3626 13.8243 10.6439 13.4743 10.6564H12.2493C11.5743 10.6564 10.9555 10.1626 10.8993 9.48761C10.8618 9.09386 11.0118 8.72511 11.2743 8.46886C11.5055 8.23136 11.8243 8.09387 12.1743 8.09387H13.4743C13.8243 8.10637 14.0993 8.3876 14.0993 8.73135Z" stroke="#1F1F1F" stroke-linecap="round" stroke-linejoin="round"/>
<path d="M4.375 7.5H8.75" stroke="#1F1F1F" stroke-linecap="round" stroke-linejoin="round"/>
<path d="M5.625 11.875C5.625 12.3438 5.49375 12.7875 5.2625 13.1625C5.13125 13.3875 4.9625 13.5875 4.76875 13.75C4.33125 14.1437 3.75625 14.375 3.125 14.375C2.2125 14.375 1.41875 13.8875 0.987501 13.1625C0.756251 12.7875 0.625 12.3438 0.625 11.875C0.625 11.0875 0.9875 10.3813 1.5625 9.925C1.99375 9.58125 2.5375 9.375 3.125 9.375C4.50625 9.375 5.625 10.4937 5.625 11.875Z" stroke="#1F1F1F" stroke-miterlimit="10" stroke-linecap="round" stroke-linejoin="round"/>
<path d="M4.05732 11.8622H2.19482" stroke="#1F1F1F" stroke-miterlimit="10" stroke-linecap="round" stroke-linejoin="round"/>
<path d="M3.125 10.9497V12.8185" stroke="#1F1F1F" stroke-miterlimit="10" stroke-linecap="round" stroke-linejoin="round"/>
</svg>
