<svg width="15" height="16" viewBox="0 0 15 16" fill="none" xmlns="http://www.w3.org/2000/svg">
<path d="M11.0011 14.8632H4.00112C2.86362 14.8632 1.82612 13.9882 1.63862 12.8632L0.807373 7.88822C0.676123 7.11322 1.05113 6.11947 1.66988 5.62572L6.00113 2.15694C6.83863 1.48194 8.15737 1.4882 9.00112 2.1632L13.3324 5.62572C13.9449 6.11947 14.3199 7.11322 14.1949 7.88822L13.3636 12.8632C13.1761 13.9694 12.1199 14.8632 11.0011 14.8632ZM7.49488 2.60071C7.16363 2.60071 6.83237 2.70069 6.58862 2.89444L2.25738 6.36322C1.90113 6.65072 1.65738 7.28819 1.73238 7.73819L2.56363 12.7132C2.67613 13.3695 3.33237 13.9257 4.00112 13.9257H11.0011C11.6699 13.9257 12.3261 13.3694 12.4386 12.7069L13.2699 7.73197C13.3449 7.28197 13.0949 6.63821 12.7449 6.35696L8.41363 2.89444C8.16363 2.70069 7.83238 2.60071 7.49488 2.60071Z" fill="#636363"/>
<path d="M7.5 10.9194C6.38125 10.9194 5.46875 10.0069 5.46875 8.88818C5.46875 7.76943 6.38125 6.85693 7.5 6.85693C8.61875 6.85693 9.53125 7.76943 9.53125 8.88818C9.53125 10.0069 8.61875 10.9194 7.5 10.9194ZM7.5 7.79443C6.9 7.79443 6.40625 8.28818 6.40625 8.88818C6.40625 9.48818 6.9 9.98193 7.5 9.98193C8.1 9.98193 8.59375 9.48818 8.59375 8.88818C8.59375 8.28818 8.1 7.79443 7.5 7.79443Z" fill="#636363"/>
</svg>
