<svg width="15" height="15" viewBox="0 0 15 15" fill="none" xmlns="http://www.w3.org/2000/svg">
<path d="M0.625 13.75H14.375" stroke="#1F1F1F" stroke-miterlimit="10" stroke-linecap="round" stroke-linejoin="round"/>
<path d="M12.3623 13.7563V10.9688" stroke="#1F1F1F" stroke-miterlimit="10" stroke-linecap="round" stroke-linejoin="round"/>
<path d="M12.375 6.80626C11.6125 6.80626 11 7.41877 11 8.18127V9.59999C11 10.3625 11.6125 10.975 12.375 10.975C13.1375 10.975 13.75 10.3625 13.75 9.59999V8.18127C13.75 7.41877 13.1375 6.80626 12.375 6.80626Z" stroke="#1F1F1F" stroke-miterlimit="10" stroke-linecap="round" stroke-linejoin="round"/>
<path d="M1.3125 13.75V3.76877C1.3125 2.51252 1.93753 1.88126 3.18128 1.88126H7.07502C8.31877 1.88126 8.93751 2.51252 8.93751 3.76877V13.75" stroke="#1F1F1F" stroke-miterlimit="10" stroke-linecap="round" stroke-linejoin="round"/>
<path d="M3.625 3.90625H6.71876" stroke="#1F1F1F" stroke-miterlimit="10" stroke-linecap="round" stroke-linejoin="round"/>
<path d="M3.625 6.40625H6.71876" stroke="#1F1F1F" stroke-miterlimit="10" stroke-linecap="round" stroke-linejoin="round"/>
<path d="M3.625 8.90625H6.71876" stroke="#1F1F1F" stroke-miterlimit="10" stroke-linecap="round" stroke-linejoin="round"/>
<path d="M5.15625 13.75V11.4062" stroke="#1F1F1F" stroke-miterlimit="10" stroke-linecap="round" stroke-linejoin="round"/>
</svg>
