<svg width="15" height="16" viewBox="0 0 15 16" fill="none" xmlns="http://www.w3.org/2000/svg">
<path d="M11.6538 6H3.34615C3.15692 6 3 5.77333 3 5.5C3 5.22667 3.15692 5 3.34615 5H11.6538C11.8431 5 12 5.22667 12 5.5C12 5.77333 11.8431 6 11.6538 6Z" fill="#636363"/>
<path d="M11.6538 9H3.34615C3.15692 9 3 8.77333 3 8.5C3 8.22667 3.15692 8 3.34615 8H11.6538C11.8431 8 12 8.22667 12 8.5C12 8.77333 11.8431 9 11.6538 9Z" fill="#636363"/>
<path d="M11.6538 12H3.34615C3.15692 12 3 11.7733 3 11.5C3 11.2267 3.15692 11 3.34615 11H11.6538C11.8431 11 12 11.2267 12 11.5C12 11.7733 11.8431 12 11.6538 12Z" fill="#636363"/>
</svg>
