<svg width="15" height="15" viewBox="0 0 15 15" fill="none" xmlns="http://www.w3.org/2000/svg">
<path d="M11.2498 4.475C11.2123 4.46875 11.1686 4.46875 11.1311 4.475C10.2686 4.44375 9.58105 3.7375 9.58105 2.8625C9.58105 1.96875 10.2998 1.25 11.1936 1.25C12.0873 1.25 12.8061 1.975 12.8061 2.8625C12.7998 3.7375 12.1123 4.44375 11.2498 4.475Z" stroke="#498C92" stroke-linecap="round" stroke-linejoin="round"/>
<path d="M10.6062 9.02501C11.4624 9.16876 12.4062 9.01876 13.0687 8.57501C13.9499 7.98751 13.9499 7.02501 13.0687 6.43751C12.3999 5.99376 11.4437 5.84376 10.5874 5.99376" stroke="#498C92" stroke-linecap="round" stroke-linejoin="round"/>
<path d="M3.73154 4.475C3.76904 4.46875 3.81279 4.46875 3.85029 4.475C4.71279 4.44375 5.40029 3.7375 5.40029 2.8625C5.40029 1.96875 4.68154 1.25 3.78779 1.25C2.89404 1.25 2.17529 1.975 2.17529 2.8625C2.18154 3.7375 2.86904 4.44375 3.73154 4.475Z" stroke="#498C92" stroke-linecap="round" stroke-linejoin="round"/>
<path d="M4.37539 9.02501C3.51914 9.16876 2.57539 9.01876 1.91289 8.57501C1.03164 7.98751 1.03164 7.02501 1.91289 6.43751C2.58164 5.99376 3.53789 5.84376 4.39414 5.99376" stroke="#498C92" stroke-linecap="round" stroke-linejoin="round"/>
<path d="M7.4998 9.14373C7.4623 9.13748 7.41855 9.13748 7.38105 9.14373C6.51855 9.11248 5.83105 8.40623 5.83105 7.53123C5.83105 6.63748 6.5498 5.91873 7.44355 5.91873C8.3373 5.91873 9.05605 6.64373 9.05605 7.53123C9.0498 8.40623 8.3623 9.11873 7.4998 9.14373Z" stroke="#498C92" stroke-linecap="round" stroke-linejoin="round"/>
<path d="M5.68096 11.1125C4.79971 11.7 4.79971 12.6625 5.68096 13.25C6.68096 13.9187 8.31846 13.9187 9.31846 13.25C10.1997 12.6625 10.1997 11.7 9.31846 11.1125C8.32471 10.45 6.68096 10.45 5.68096 11.1125Z" stroke="#498C92" stroke-linecap="round" stroke-linejoin="round"/>
</svg>
