<svg width="15" height="15" viewBox="0 0 15 15" fill="none" xmlns="http://www.w3.org/2000/svg">
<path d="M13.75 9.375V5.625C13.75 2.5 12.5 1.25 9.375 1.25H5.625C2.5 1.25 1.25 2.5 1.25 5.625V9.375C1.25 12.5 2.5 13.75 5.625 13.75H9.375C12.5 13.75 13.75 12.5 13.75 9.375Z" stroke="#636363" stroke-linecap="round" stroke-linejoin="round"/>
<path d="M1.5752 4.44376H13.4252" stroke="#636363" stroke-linecap="round" stroke-linejoin="round"/>
<path d="M5.3252 1.31876V4.35626" stroke="#636363" stroke-linecap="round" stroke-linejoin="round"/>
<path d="M9.6748 1.31876V4.07501" stroke="#636363" stroke-linecap="round" stroke-linejoin="round"/>
<path d="M6.09375 9.03125V8.28125C6.09375 7.31875 6.775 6.925 7.60625 7.40625L8.25625 7.78125L8.90625 8.15625C9.7375 8.6375 9.7375 9.425 8.90625 9.90625L8.25625 10.2812L7.60625 10.6562C6.775 11.1375 6.09375 10.7437 6.09375 9.78125V9.03125V9.03125Z" stroke="#636363" stroke-miterlimit="10" stroke-linecap="round" stroke-linejoin="round"/>
</svg>
