<svg width="15" height="16" viewBox="0 0 15 16" fill="none" xmlns="http://www.w3.org/2000/svg">
<path d="M8.91406 9.91223H5.78906" stroke="#1F1F1F" stroke-width="0.9375" stroke-miterlimit="10" stroke-linecap="round" stroke-linejoin="round"/>
<path d="M7.35156 8.38696V11.512" stroke="#1F1F1F" stroke-width="0.9375" stroke-miterlimit="10" stroke-linecap="round" stroke-linejoin="round"/>
<path d="M7.91406 1.83702L7.89531 1.88077L6.08281 6.08702H4.30156C3.87656 6.08702 3.47031 6.17452 3.10156 6.33077L4.19531 3.71827L4.22031 3.65577L4.26406 3.55577C4.27656 3.51827 4.28906 3.48077 4.30781 3.44952C5.12656 1.55577 6.05156 1.12452 7.91406 1.83702Z" stroke="#1F1F1F" stroke-width="0.9375" stroke-linecap="round" stroke-linejoin="round"/>
<path d="M11.282 6.21204C11.0008 6.12454 10.7008 6.08704 10.4008 6.08704H6.08203L7.89453 1.88079L7.91328 1.83704C8.00703 1.86829 8.09453 1.91204 8.18828 1.94954L9.56953 2.53079C10.3383 2.84954 10.8758 3.18079 11.2008 3.58079C11.2633 3.65579 11.3133 3.72454 11.357 3.80579C11.4133 3.89329 11.457 3.98079 11.482 4.07454C11.507 4.13079 11.5258 4.18704 11.5383 4.23704C11.707 4.76204 11.607 5.40579 11.282 6.21204Z" stroke="#1F1F1F" stroke-width="0.9375" stroke-linecap="round" stroke-linejoin="round"/>
<path d="M13.4516 9.13716V10.3559C13.4516 10.4809 13.4453 10.6059 13.4391 10.7309C13.3203 12.9122 12.1016 14.0122 9.78906 14.0122H4.91406C4.76406 14.0122 4.61406 13.9997 4.47031 13.9809C2.48281 13.8497 1.42031 12.7872 1.28906 10.7997C1.27031 10.6559 1.25781 10.5059 1.25781 10.3559V9.13716C1.25781 7.88091 2.02031 6.79966 3.10781 6.33091C3.48281 6.17466 3.88281 6.08716 4.30781 6.08716H10.4078C10.7141 6.08716 11.0141 6.13091 11.2891 6.21216C12.5328 6.59341 13.4516 7.75591 13.4516 9.13716Z" stroke="#1F1F1F" stroke-width="0.9375" stroke-linecap="round" stroke-linejoin="round"/>
<path d="M4.19375 3.71826L3.1 6.33076C2.0125 6.79951 1.25 7.88076 1.25 9.13701V7.30576C1.25 5.53076 2.5125 4.04951 4.19375 3.71826Z" stroke="#1F1F1F" stroke-width="0.9375" stroke-linecap="round" stroke-linejoin="round"/>
<path d="M13.4477 7.30547V9.13672C13.4477 7.76172 12.5352 6.59297 11.2852 6.21797C11.6102 5.40547 11.7039 4.76797 11.5477 4.23672C11.5352 4.18047 11.5164 4.12422 11.4914 4.07422C12.6539 4.67422 13.4477 5.90547 13.4477 7.30547Z" stroke="#1F1F1F" stroke-width="0.9375" stroke-linecap="round" stroke-linejoin="round"/>
</svg>
